<?xml version="1.0" encoding="UTF-8"?> <svg xmlns="http://www.w3.org/2000/svg" xmlns:xlink="http://www.w3.org/1999/xlink" viewBox="0 0 61.465 78.697"> <defs> <style> .cls-1 { fill: #f80308; } .cls-2 { filter: url(#Path_76); } </style> <filter id="Path_76" x="0" y="0" width="61.465" height="78.697" filterUnits="userSpaceOnUse"> <feOffset dy="8"></feOffset> <feGaussianBlur stdDeviation="7.5" result="blur"></feGaussianBlur> <feFlood></feFlood> <feComposite operator="in" in2="blur"></feComposite> <feComposite in="SourceGraphic"></feComposite> </filter> </defs> <g id="arrow" transform="translate(166.963 39.197) rotate(180)"> <g id="Group_79" data-name="Group 79" transform="translate(127.998)"> <g id="Group_78" data-name="Group 78"> <g class="cls-2" transform="matrix(-1, 0, 0, -1, 38.96, 39.2)"> <path id="Path_76-2" data-name="Path 76" class="cls-1" d="M144.37,15.01a1.026,1.026,0,0,0-.936-.6h-4.116V-7.971A1.029,1.029,0,0,0,138.289-9h-4.116a1.029,1.029,0,0,0-1.029,1.029V14.407h-4.116a1.029,1.029,0,0,0-.774,1.706l7.2,8.232a1.027,1.027,0,0,0,1.548,0l7.2-8.232A1.026,1.026,0,0,0,144.37,15.01Z" transform="translate(166.96 39.2) rotate(180)"></path> </g> </g> </g> </g> </svg> 