<?xml version="1.0" encoding="UTF-8"?> <svg xmlns="http://www.w3.org/2000/svg" xmlns:xlink="http://www.w3.org/1999/xlink" viewBox="0 0 249.465 78.697"> <defs> <style> .cls-1 { fill: #f80308; } .cls-2 { filter: url(#Path_76-5); } .cls-3 { filter: url(#Path_76-4); } .cls-4 { filter: url(#Path_76-3); } .cls-5 { filter: url(#Path_76-2); } .cls-6 { filter: url(#Path_76); } </style> <filter id="Path_76" x="0" y="0" width="61.465" height="78.697" filterUnits="userSpaceOnUse"> <feOffset dy="8"></feOffset> <feGaussianBlur stdDeviation="7.5" result="blur"></feGaussianBlur> <feFlood></feFlood> <feComposite operator="in" in2="blur"></feComposite> <feComposite in="SourceGraphic"></feComposite> </filter> <filter id="Path_76-2" x="47" y="0" width="61.465" height="78.697" filterUnits="userSpaceOnUse"> <feOffset dy="8"></feOffset> <feGaussianBlur stdDeviation="7.5" result="blur-2"></feGaussianBlur> <feFlood></feFlood> <feComposite operator="in" in2="blur-2"></feComposite> <feComposite in="SourceGraphic"></feComposite> </filter> <filter id="Path_76-3" x="94" y="0" width="61.465" height="78.697" filterUnits="userSpaceOnUse"> <feOffset dy="8"></feOffset> <feGaussianBlur stdDeviation="7.5" result="blur-3"></feGaussianBlur> <feFlood></feFlood> <feComposite operator="in" in2="blur-3"></feComposite> <feComposite in="SourceGraphic"></feComposite> </filter> <filter id="Path_76-4" x="141" y="0" width="61.465" height="78.697" filterUnits="userSpaceOnUse"> <feOffset dy="8"></feOffset> <feGaussianBlur stdDeviation="7.5" result="blur-4"></feGaussianBlur> <feFlood></feFlood> <feComposite operator="in" in2="blur-4"></feComposite> <feComposite in="SourceGraphic"></feComposite> </filter> <filter id="Path_76-5" x="188" y="0" width="61.465" height="78.697" filterUnits="userSpaceOnUse"> <feOffset dy="8"></feOffset> <feGaussianBlur stdDeviation="7.5" result="blur-5"></feGaussianBlur> <feFlood></feFlood> <feComposite operator="in" in2="blur-5"></feComposite> <feComposite in="SourceGraphic"></feComposite> </filter> </defs> <g id="Group_86" data-name="Group 86" transform="translate(-240.498 -3121.395)"> <g id="download" transform="translate(407.461 3160.591) rotate(180)"> <g id="Group_79" data-name="Group 79" transform="translate(127.998)"> <g id="Group_78" data-name="Group 78"> <g class="cls-6" transform="matrix(-1, 0, 0, -1, 38.96, 39.2)"> <path id="Path_76-6" data-name="Path 76" class="cls-1" d="M144.37,15.01a1.026,1.026,0,0,0-.936-.6h-4.116V-7.971A1.029,1.029,0,0,0,138.289-9h-4.116a1.029,1.029,0,0,0-1.029,1.029V14.407h-4.116a1.029,1.029,0,0,0-.774,1.706l7.2,8.232a1.027,1.027,0,0,0,1.548,0l7.2-8.232A1.026,1.026,0,0,0,144.37,15.01Z" transform="translate(166.96 39.2) rotate(180)"></path> </g> </g> </g> </g> <g id="download-2" data-name="download" transform="translate(454.461 3160.591) rotate(180)"> <g id="Group_79-2" data-name="Group 79" transform="translate(127.998)"> <g id="Group_78-2" data-name="Group 78"> <g class="cls-5" transform="matrix(-1, 0, 0, -1, 85.96, 39.2)"> <path id="Path_76-7" data-name="Path 76" class="cls-1" d="M144.37,15.01a1.026,1.026,0,0,0-.936-.6h-4.116V-7.971A1.029,1.029,0,0,0,138.289-9h-4.116a1.029,1.029,0,0,0-1.029,1.029V14.407h-4.116a1.029,1.029,0,0,0-.774,1.706l7.2,8.232a1.027,1.027,0,0,0,1.548,0l7.2-8.232A1.026,1.026,0,0,0,144.37,15.01Z" transform="translate(213.96 39.2) rotate(180)"></path> </g> </g> </g> </g> <g id="download-3" data-name="download" transform="translate(501.461 3160.591) rotate(180)"> <g id="Group_79-3" data-name="Group 79" transform="translate(127.998)"> <g id="Group_78-3" data-name="Group 78"> <g class="cls-4" transform="matrix(-1, 0, 0, -1, 132.96, 39.2)"> <path id="Path_76-8" data-name="Path 76" class="cls-1" d="M144.37,15.01a1.026,1.026,0,0,0-.936-.6h-4.116V-7.971A1.029,1.029,0,0,0,138.289-9h-4.116a1.029,1.029,0,0,0-1.029,1.029V14.407h-4.116a1.029,1.029,0,0,0-.774,1.706l7.2,8.232a1.027,1.027,0,0,0,1.548,0l7.2-8.232A1.026,1.026,0,0,0,144.37,15.01Z" transform="translate(260.96 39.2) rotate(180)"></path> </g> </g> </g> </g> <g id="download-4" data-name="download" transform="translate(548.461 3160.591) rotate(180)"> <g id="Group_79-4" data-name="Group 79" transform="translate(127.998)"> <g id="Group_78-4" data-name="Group 78"> <g class="cls-3" transform="matrix(-1, 0, 0, -1, 179.96, 39.2)"> <path id="Path_76-9" data-name="Path 76" class="cls-1" d="M144.37,15.01a1.026,1.026,0,0,0-.936-.6h-4.116V-7.971A1.029,1.029,0,0,0,138.289-9h-4.116a1.029,1.029,0,0,0-1.029,1.029V14.407h-4.116a1.029,1.029,0,0,0-.774,1.706l7.2,8.232a1.027,1.027,0,0,0,1.548,0l7.2-8.232A1.026,1.026,0,0,0,144.37,15.01Z" transform="translate(307.96 39.2) rotate(180)"></path> </g> </g> </g> </g> <g id="download-5" data-name="download" transform="translate(595.461 3160.591) rotate(180)"> <g id="Group_79-5" data-name="Group 79" transform="translate(127.998)"> <g id="Group_78-5" data-name="Group 78"> <g class="cls-2" transform="matrix(-1, 0, 0, -1, 226.96, 39.2)"> <path id="Path_76-10" data-name="Path 76" class="cls-1" d="M144.37,15.01a1.026,1.026,0,0,0-.936-.6h-4.116V-7.971A1.029,1.029,0,0,0,138.289-9h-4.116a1.029,1.029,0,0,0-1.029,1.029V14.407h-4.116a1.029,1.029,0,0,0-.774,1.706l7.2,8.232a1.027,1.027,0,0,0,1.548,0l7.2-8.232A1.026,1.026,0,0,0,144.37,15.01Z" transform="translate(354.96 39.2) rotate(180)"></path> </g> </g> </g> </g> </g> </svg> 