<?xml version="1.0" encoding="UTF-8"?> <svg xmlns="http://www.w3.org/2000/svg" id="dish" viewBox="0 0 45.528 45.528"> <defs> <style> .cls-1 { fill: #373b59; } </style> </defs> <g id="Group_13" data-name="Group 13" transform="translate(24.283 11.378)"> <g id="Group_12" data-name="Group 12"> <path id="Path_6" data-name="Path 6" class="cls-1" d="M263.969,123.922l-.487-1.6a3.483,3.483,0,0,0-6.6,0l-.487,1.6a9.006,9.006,0,0,0-.251,4.173,3.925,3.925,0,0,0,2.021,2.735l-.546,12.2a2.4,2.4,0,0,0,.607,1.868,2.651,2.651,0,0,0,3.745.168q.088-.08.168-.168a2.371,2.371,0,0,0,.607-1.817l-.549-12.249a3.925,3.925,0,0,0,2.018-2.734A9.006,9.006,0,0,0,263.969,123.922Zm-1.244,3.909a2.406,2.406,0,0,1-1.575,1.813.759.759,0,0,0-.491.744l.577,12.809a.878.878,0,0,1-.228.687,1.172,1.172,0,0,1-1.65,0,.911.911,0,0,1-.223-.738l.572-12.759a.759.759,0,0,0-.491-.744,2.406,2.406,0,0,1-1.575-1.813,7.483,7.483,0,0,1,.209-3.465l.487-1.6a1.968,1.968,0,0,1,3.691,0l.487,1.6A7.493,7.493,0,0,1,262.725,127.831Z" transform="translate(-256.012 -119.955)"></path> </g> </g> <g id="Group_15" data-name="Group 15" transform="translate(12.9 11.382)"> <g id="Group_14" data-name="Group 14"> <path id="Path_7" data-name="Path 7" class="cls-1" d="M143.588,120a.759.759,0,0,0-.759.759v6.515l-2.054,2.054a.759.759,0,0,0-.222.574l.664,13.279a1.034,1.034,0,0,1-.287.773,1.068,1.068,0,0,1-1.511.007l-.007-.007a1.033,1.033,0,0,1-.287-.773l.669-13.279a.759.759,0,0,0-.222-.574l-2.055-2.054v-6.515a.759.759,0,1,0-1.518,0v6.829a.759.759,0,0,0,.222.536l2.038,2.039-.647,12.944a2.563,2.563,0,0,0,5.12.249q.006-.125,0-.249l-.647-12.944,2.038-2.039a.759.759,0,0,0,.222-.536v-6.829A.759.759,0,0,0,143.588,120Z" transform="translate(-136 -120)"></path> </g> </g> <g id="Group_17" data-name="Group 17" transform="translate(15.176 11.382)"> <g id="Group_16" data-name="Group 16"> <path id="Path_8" data-name="Path 8" class="cls-1" d="M160.759,120a.759.759,0,0,0-.759.759v6.07a.759.759,0,1,0,1.518,0v-6.07A.759.759,0,0,0,160.759,120Z" transform="translate(-160 -120)"></path> </g> </g> <g id="Group_19" data-name="Group 19" transform="translate(17.453 11.382)"> <g id="Group_18" data-name="Group 18"> <path id="Path_9" data-name="Path 9" class="cls-1" d="M184.759,120a.759.759,0,0,0-.759.759v6.07a.759.759,0,1,0,1.518,0v-6.07A.759.759,0,0,0,184.759,120Z" transform="translate(-184 -120)"></path> </g> </g> <g id="Group_21" data-name="Group 21"> <g id="Group_20" data-name="Group 20"> <path id="Path_10" data-name="Path 10" class="cls-1" d="M22.764,0A22.764,22.764,0,1,0,45.528,22.764,22.764,22.764,0,0,0,22.764,0Zm0,44.011A21.247,21.247,0,1,1,44.011,22.764,21.247,21.247,0,0,1,22.764,44.011Z"></path> </g> </g> <g id="Group_23" data-name="Group 23" transform="translate(20.309 36.323)"> <g id="Group_22" data-name="Group 22"> <path id="Path_11" data-name="Path 11" class="cls-1" d="M219.031,383.634a.759.759,0,0,0-.829-.681l-.029,0h0a13.937,13.937,0,0,1-3.216,0,.759.759,0,0,0-.177,1.508,15.372,15.372,0,0,0,3.566,0A.759.759,0,0,0,219.031,383.634Z" transform="translate(-214.113 -382.949)"></path> </g> </g> <g id="Group_25" data-name="Group 25" transform="translate(32.182 12.715)"> <g id="Group_24" data-name="Group 24"> <path id="Path_12" data-name="Path 12" class="cls-1" d="M341.486,134.324a.759.759,0,0,0-1.069-.094l0,0a.759.759,0,0,0-.091,1.069,13.658,13.658,0,0,1-.805,18.475.759.759,0,0,0,1.071,1.075A15.176,15.176,0,0,0,341.486,134.324Z" transform="translate(-339.295 -134.053)"></path> </g> </g> <g id="Group_28" data-name="Group 28" transform="translate(16.92 7.591)"> <g id="Group_27" data-name="Group 27"> <g id="Group_26" data-name="Group 26"> <path id="Path_13" data-name="Path 13" class="cls-1" d="M186.356,105.743h0Z" transform="translate(-185.596 -103.304)"></path> <path id="Path_14" data-name="Path 14" class="cls-1" d="M187.806,80.448a15.31,15.31,0,0,0-8.932.549.758.758,0,1,0,.532,1.42,13.785,13.785,0,0,1,8.043-.493.759.759,0,1,0,.357-1.475Z" transform="translate(-178.382 -80.027)"></path> </g> </g> </g> <g id="Group_30" data-name="Group 30" transform="translate(7.587 13.515)"> <g id="Group_29" data-name="Group 29"> <path id="Path_15" data-name="Path 15" class="cls-1" d="M85.49,161.374A13.657,13.657,0,0,1,84.118,143.7a.759.759,0,0,0-1.213-.912l-.013.018a15.176,15.176,0,0,0,1.523,19.639.76.76,0,0,0,1.075-1.074Z" transform="translate(-79.989 -142.488)"></path> </g> </g> </svg> 