<?xml version="1.0" encoding="UTF-8"?> <svg xmlns="http://www.w3.org/2000/svg" width="446.254" height="417.434" viewBox="0 0 446.254 417.434"> <g id="Group_1" data-name="Group 1" transform="translate(-376.873 -191.283)"> <path id="Path_1" data-name="Path 1" d="M428.673,498.252l-51.8,1.1.221,19.328,15.9-.551-.221,49.59,21.648-.993-2.32-49.04,17.451.222-.884-19.66Z" fill="#2e2e2d" fill-rule="evenodd"></path> <path id="Path_2" data-name="Path 2" d="M483.131,498.915l-47.492.774-1.657,65.5,19.439,2.209L486,566.049l2.319-12.5-5.191-54.634Zm-30.042,49.591.553-30.7,12.259.663,1.436,29.488-14.248.553Z" fill="#2e2e2d" fill-rule="evenodd"></path> <path id="Path_3" data-name="Path 3" d="M496.945,501.014l-1.326,66.709,20.764.111L516.6,532.6l6.185,12.923,11.929-.884,5.522-12.37,1.436,35.9,20.653-1.436-2.54-67.263-18-.662-13.474,26.287-13.7-26.287-17.671,2.209Z" fill="#2e2e2d" fill-rule="evenodd"></path> <path id="Path_4" data-name="Path 4" d="M604.86,568.5l22.09-.663-.552-38.657V498.915l-21.869.22.11,8.725L597.46,519.9l-5.854,9.61-.552-29.49H570.842l.111,66.158,20.543,1.1-.111-9.387,8.063-13.7,5.3-7.731.11,32.03Z" fill="#2e2e2d" fill-rule="evenodd"></path> <path id="Path_5" data-name="Path 5" d="M674.119,567.061l22.089-1.436-.552-36.448V497.7l-55.776,2.32.994,45.393-8.725,20.1,21.648,3.533,7.731-19.769.221-19.77-.663-12.812,12.922-.774.111,51.138Z" fill="#2e2e2d" fill-rule="evenodd"></path> <path id="Path_6" data-name="Path 6" d="M704.389,499.8l.884,68.036,21.979-.773-.774-26.029,12.149,8.155,1.215,19.088,23.194-1.325L758.4,538.069,744.813,532.1l13.254-8.155,1.767-23.267-22.421-1.436-.552,19.2L725.595,526.6l-.442-27.133-20.764.331Z" fill="#2e2e2d" fill-rule="evenodd"></path> <path id="Path_7" data-name="Path 7" d="M818.93,524.87l-16.014-26.176-19.44.773-13.8,28.607L766.8,567.613l19,.331.552-11.816,15.794-1.327,1.1,13.7,19.88-.884-4.2-42.743Zm-31.809,14.69.994-9.941,5.744-12.48,5.964,12.7.773,8.946-13.475.773Z" fill="#2e2e2d" fill-rule="evenodd"></path> <path id="Path_8" data-name="Path 8" d="M395.443,597.551l2.616.377v10.789h-5.282V592.646h16.071v16.071h-5.256V597.928l2.666-.377Zm42.63,6.136H447v5.03H432.415V592.646H447v5.005h-8.929l-.377-2.515v3.546h8.048v4.049H437.7v3.295l.377-2.339Zm32.445-11.041h5.633v6.866l-3.093.378h10.789l-2.892-.378v-6.866h5.633v16.071h-5.633v-2.892l3.093-.377h-13.53v-12.8Zm45.17,13.707.377-2.515h5.156v-3.647h-5.156l-.377-2.515v8.677Zm0-10.689H526.5v13.053h-16.1V592.646h5.282v3.018Zm45.094-3.018h5.659v4.88l-3.093.377h10.764l-2.892-.377v-4.88h5.633v16.071H571.22v-4.879l3.093-.377H563.348l3.093.377v4.879h-5.659V592.646Zm45.145,5.257v2.766l-2.892.378H613.85l-2.893-.378V597.9l2.893-.377H603.035l2.892.377Zm10.538-5.257v16.071h-5.508v-2.766l2.641-.5H603.035l2.892.5v2.766H600.4V592.646Zm43.36,16.071h-6.213l2.239-4.527-5.784-11.544h6.111l2.389,5.181-.729,2.414,3.646-7.6h6.288l-7.947,16.071Zm36.267-11.166-.378-2.641v13.807h-5.532V592.646H705.02v4.905Zm37.65.125,2.289.377-1.912,10.664h-5.935l2.867-16.071h10.714l2.691,16.071H738.52l-1.911-10.664,2.49-.377Zm36.443-.15,3.043.377v2.64l-3.043.378h8.048v-3.4ZM773,605.7l2.792.378-1.887,2.64H767.67l2.465-3.018h-2.49V592.646h16.071v16.071h-5.659v-2.64l3.018-.378Zm33.878-13.053h5.86l1.886,3.219-1.132,2.641,3.773-5.86h5.86l-5.106,8.124,5.106,7.947h-5.86l-1.886-3.219,1.131-2.641-3.772,5.86h-5.86l5.106-7.947-5.106-8.124Z" fill="#2e2e2d"></path> <path id="Path_9" data-name="Path 9" d="M599.529,296.307H622.8V191.283H599.529V296.307Z" fill="#e7e7e8" fill-rule="evenodd"></path> <path id="Path_10" data-name="Path 10" d="M689.373,302.245l7.531,18.162L720.659,377.7l.347,31.058-.877,16.951v23.628h22.677V426.3l.883-17.078-.4-36.155-23.705-57.172L704.52,279.568H517.811L502.75,315.892l-23.7,57.172-.4,36.155.884,17.078v23.041H502.2V425.71l-.877-16.951.347-31.058,23.755-57.294,7.53-18.162Z" fill="#e7e7e8" fill-rule="evenodd"></path> <path id="Path_11" data-name="Path 11" d="M636.007,443.631l33.587,1.28,1.282-58.55L656.09,352.3H632.918l1.071,7.153,4.248-.393,1.33,4.456L648.9,394.8l.47,1.576-.448,1.584-12.529,44.3-.387,1.369Z" fill="#e1445a" fill-rule="evenodd"></path> <path id="Path_12" data-name="Path 12" d="M572.392,264.574l13.236,6.318,30.51-.957,13.971-3.844-2.777-7.32L611.461,237.5l.572,2.893.283,1.43-.652,1.365-8.13,17.017-8.086-3.867,7.478-15.653L600.5,228.4l-23.4,25.091-4.7,11.083Z" fill="#dcdb6d" fill-rule="evenodd"></path> <path id="Path_13" data-name="Path 13" d="M585.628,270.892l21.177-.664L605.73,255.61l-2.2,4.6-8.086-3.867,7.478-15.653L600.5,228.4l-23.4,25.091-4.7,11.083,13.236,6.318Z" fill="#8e943a" fill-rule="evenodd"></path> <path id="Path_14" data-name="Path 14" d="M477.871,438.582l25.884.71,6.667-36.31-6.942-33.622-27.453,3.71L466.594,389.3l11.278,49.287Z" fill="#e55b56" fill-rule="evenodd"></path> <path id="Path_15" data-name="Path 15" d="M570.391,402.055l-58.8-33.341-.42,71.241,9.449.065,44.783-26.312,4.984-11.654Z" fill="#dd8158" fill-rule="evenodd"></path> <path id="Path_16" data-name="Path 16" d="M542.373,334.879H671.947v57.35H542.373v-57.35Z" fill="#dc2c29" fill-rule="evenodd"></path> <path id="Path_17" data-name="Path 17" d="M632.424,254.173,642.9,281.8l5.6-25.611-11.754-9.048-7.565,2.262,2.408,3.228.5.675.329.869Z" fill="#8e943a" fill-rule="evenodd"></path> <path id="Path_18" data-name="Path 18" d="M517.766,449.338H704.512V421.276H517.766v28.062Z" fill="#2e2e2d" fill-rule="evenodd"></path> <path id="Path_19" data-name="Path 19" d="M635.5,254.984l7.516,19.815,4.016-18.37-8.431-6.49-5.427,1.623,1.727,2.315.362.484.236.623Z" fill="#8e943a" fill-rule="evenodd"></path> <path id="Path_20" data-name="Path 20" d="M601.464,317.62l19.082,18.88,28.634,10.242,14.5-2.872-2.895-19.337L645.576,307.1l-24-8.721,3.059-8.438,15.081,5.48-.014-4.042-6.4-16.866-15.324,4.216-.515.142-.522.016-32.149,1.008-1.117.035-.957-.457-13.841-6.607-2.894,6.827-.257,55.456,19.553,52.064,45.766-1.219,8.874-31.379-.006-1.63L616.6,344.644l-.918-.328-.734-.727-19.816-19.606,6.328-6.363Z" fill="#dcdb6d" fill-rule="evenodd"></path> <path id="Path_21" data-name="Path 21" d="M556.831,320l.15-32.448-9.061,6.524-3.958,16.49L556.831,320Z" fill="#dc2c29" fill-rule="evenodd"></path> <path id="Path_22" data-name="Path 22" d="M590.784,352.313l-.017,1.109-13.855-.258-1.337-.025-1.089-.731-.142-.1h-2.171l13.682,36.431-8.4,3.164-13.2-35.15-12.024,27.7,21.183,12.486-5.063,8.568-16.76-9.87.751,36.267,1.772-.3,1.635,9.814-3.2.533.153,7.375H517.766v-1.572l-5.635.94-4.393.632h-37.61L456.459,389.6l-.437-1.912L457,386l11.642-20.023,1.225-2.108,2.416-.326,34.46-4.657,5.081,1.763,10.717,6.316,19.386-46.756-5.678-4.162-2.4-1.76.695-2.9,5.045-21.019.391-1.63,1.349-.972,16.535-11.9,11.283-26.612.322-.758.522-.56,29.92-32.076,3.675-3.94,3.215,4.309,20.646,27.666,10.775-3.222,2.192-.656,1.834,1.412,12.52,9.638,2.256,1.738-.6,2.762-7.76,35.5.026,7.613,1.031.374,1.086.395.759.871L665.94,316.8h12.994l26.143,63.053.307,27.555-.872,16.864v25.067H669.579l1.3-62.96-13.9-32.017-7.3,1.445-.821.163-.142.5L635.484,403.3l-8.649-2.426,13.084-46.267-.005-1.629-1.87-.669ZM552.467,316.8h4.379l.135-29.249-9.061,6.524-3.957,16.491,8.5,6.234Zm49,.821,19.082,18.88,28.633,10.242,14.5-2.872-2.894-19.337-6.745-7.734-8.463-9.7-24-8.721,3.058-8.438,15.082,5.48-.014-4.042-6.4-16.865-15.324,4.216-.516.142-.521.016-32.15,1.009-1.116.035-.958-.457-13.841-6.607-2.894,6.827-.016,3.384,14.405,9.543,17.948-.2.07,8.965-19.324.21-1.377.015-1.137-.753-10.635-7.046-.033,7.179,10.821,6.954,18.047,1.862-.716,6.991h8.285l-.857.821Zm-35.629-5.983-.024,5.162h9.233l-.328-.034-1.075-.111-.894-.574-6.912-4.443ZM518.686,376.27l-1.484,3.582-.073,6.472-2.578-12.489,4.135,2.435Zm-1.172,43.119.252,4.882v13.408l-3.725.622,3.473-18.912ZM488.089,387.2l-5.517,6.749,6.151,26.594,4.066.555,3.469-16.186-3.83-16.647-4.339-1.065Zm-14.77,2.328,9.042-11.064,1.984-2.426,3.059.752,10.373,2.547,2.973.731.688,2.988,4.765,20.713.248,1.077-.228,1.065-4.666,21.767-.968,4.516-4.562-.621-12.04-1.642-3.411-.465-.775-3.352-7.476-32.322-.549-2.376,1.543-1.888Zm4.552,49.057,25.884.709,6.668-36.31-6.942-33.622-27.454,3.71L466.594,389.3l11.277,49.287Zm155.3-187.021,1.727,2.315.362.485.236.623,7.516,19.815,4.016-18.37-8.431-6.49-5.426,1.622Zm-50.579.986,8.277,2.381-4.586,15.943,29.852-.936,13.972-3.844-2.777-7.32L611.461,237.5l.572,2.893.283,1.43-.652,1.365-8.13,17.017-8.086-3.867,7.478-15.653L600.495,228.4l-23.4,25.09-4.7,11.084,5.93,2.83,4.273-14.857Z" fill="#2e2e2d"></path> <path id="Path_23" data-name="Path 23" d="M564.832,403.444l-50.281-29.609,5.8,28.1.194.939-.174.95L514.041,438.3l9.415-1.571,35.969-4.818L563.4,407.7l1.433-4.252Z" fill="#dd8158" fill-rule="evenodd"></path> <path id="Path_24" data-name="Path 24" d="M496.258,404.909l-3.83-16.646-4.34-1.066-5.517,6.75,6.151,26.594,4.066.555,3.469-16.186Z" fill="#dc2c29" fill-rule="evenodd"></path> <path id="Path_25" data-name="Path 25" d="M500.75,380.065l.688,2.988,4.765,20.713.248,1.077-.228,1.065-4.666,21.767-.968,4.516-4.562-.621-12.04-1.642-3.411-.465-.775-3.352-7.476-32.322-.549-2.376,1.543-1.888,9.042-11.064,1.984-2.426,3.059.752,10.373,2.547,2.973.731Zm-22.879,58.517,25.884.709,6.668-36.31-6.942-33.622-27.454,3.71L466.594,389.3l11.277,49.287Z" fill="#fff" fill-rule="evenodd"></path> <path id="Path_26" data-name="Path 26" d="M560.511,431.766l2.9-23.936-.016-.134-39.456-4.423-3.4-.4-.174.95L514.041,438.3l46.47-6.535Z" fill="#b94c29" fill-rule="evenodd"></path> <path id="Path_27" data-name="Path 27" d="M497.985,352.982l-11.108-16.132-1.819-2.642,1.907-2.579,13.43-18.155L492.8,291.883l-.546-1.553.6-1.541,2.184-5.617,8.367,3.234-1.585,4.077,7.833,22.271.785,2.232L509.02,316.9,496.079,334.4l9.289,13.489-7.383,5.1Z" fill="#2e2e2d"></path> <path id="Path_28" data-name="Path 28" d="M516.89,355.923l-11.108-16.132-1.819-2.642,1.907-2.579,13.43-18.155L511.7,294.823l-.546-1.553.6-1.541,2.184-5.617,8.367,3.234-1.585,4.077,7.833,22.271.785,2.232-1.418,1.917-12.94,17.493,9.289,13.489-7.383,5.1Z" fill="#2e2e2d"></path> <path id="Path_29" data-name="Path 29" d="M571.113,479.746,558.978,455.97l-19.427,3.238-7.088,14.7,13.959,15.616,24.692-9.779Z" fill="#2e2e2d" fill-rule="evenodd"></path> <path id="Path_30" data-name="Path 30" d="M540.9,472.718l7.506,8.4,12.849-5.089-6.234-12.213-10.686,1.781-3.435,7.124Z" fill="#dc2c29" fill-rule="evenodd"></path> <path id="Path_31" data-name="Path 31" d="M582.6,458.888l-11.135,14.227,15.817,17.033,20.5-12.3-.69-20L582.6,458.888Z" fill="#2e2e2d" fill-rule="evenodd"></path> <path id="Path_32" data-name="Path 32" d="M586.165,465.829l-5.4,6.894,7.793,8.392,11.989-7.193-.3-8.692-14.087.6Z" fill="#dc2c29" fill-rule="evenodd"></path> <path id="Path_33" data-name="Path 33" d="M636.749,455.4l-24.691,9.779,12.135,23.776,19.427-3.238,7.088-14.7L636.749,455.4Z" fill="#2e2e2d" fill-rule="evenodd"></path> <path id="Path_34" data-name="Path 34" d="M642.267,472.21l-7.506-8.4L621.912,468.9l6.234,12.213,10.686-1.781,3.435-7.124Z" fill="#dc2c29" fill-rule="evenodd"></path> <path id="Path_35" data-name="Path 35" d="M654.536,457.845l-.69,20,20.5,12.3,15.817-17.033-11.135-14.227-24.49-1.042Z" fill="#2e2e2d" fill-rule="evenodd"></path> <path id="Path_36" data-name="Path 36" d="M675.459,465.829l5.395,6.894-7.793,8.392-11.989-7.193.3-8.692,14.087.6Z" fill="#dc2c29" fill-rule="evenodd"></path> <path id="Path_37" data-name="Path 37" d="M614.952,343.589l-8.8-8.71-11.013-10.9,6.328-6.363,17.444,17.259,1.638,1.621,28.634,10.242,14.439-2.86-11.727-9-28.586-21.946-13.074-33.839-25.438.8-1.117.035-.957-.457-13.841-6.607-2.894,6.827-.016,3.384,14.4,9.543,17.948-.2.07,8.965-19.324.21-1.376.015-1.137-.753-10.635-7.045-.033,7.179,10.821,6.954,18.047,1.862-.716,6.991-.2,1.939L575.044,316.8l-.327-.034-1.075-.111-.894-.575-6.913-4.442-.024,5.162-.008,1.819,12.5,8.4,12.518.233-.12,7.633-.021,1.332-13.855-.258-1.337-.025L574.4,335.2l-.474-.319-8.171-5.488-.026,5.488v.267l.288.766,12.376,8.312,12.518.233-.123,7.856-.017,1.109-13.855-.258-1.337-.025-1.089-.731-.142-.1-2.9-1.95.732,1.95,9.988,26.6,54.89-14.159,2.867-10.141-.006-1.63-1.87-.669L638,352.3,616.6,344.644l-.918-.328-.734-.727Z" fill="#8e943a" fill-rule="evenodd"></path> <path id="Path_38" data-name="Path 38" d="M683.138,391.513l-17.647-.324-6.446-3.717-.62,4.209,1.858-12.617-13.9-9.206-35.013,8.048-27.4,8.05-22.97,11.66-3.2,12.072.071,14.966L570.1,439.417h84.422l10.821-18.436V410.347l6.74-11.751,7.335.1-.589,4.457,8.448-2.766-4.144-8.869Z" fill="#8e943a" fill-rule="evenodd"></path> <path id="Path_39" data-name="Path 39" d="M665.346,420.981v-17.65l-6.921-11.65,1.858-12.617-13.9-9.206-35.013,8.048-27.4,8.05-22.97,11.66-3.2,12.072.071,14.966L570.1,439.417h84.422l10.821-18.436Z" fill="#ffaf17" fill-rule="evenodd"></path> <path id="Path_40" data-name="Path 40" d="M646.387,369.859l-35.012,8.048-27.4,8.05-22.97,11.66,97.419-5.935,1.2-8.118.662-4.5-13.9-9.206Z" fill="#f17b00" fill-rule="evenodd"></path> <path id="Path_41" data-name="Path 41" d="M557.873,424.654,570.1,439.417h84.422l10.821-18.436-98.17,3.355-9.3.318Z" fill="#f17b00" fill-rule="evenodd"></path> <path id="Path_42" data-name="Path 42" d="M645.743,402.21l5.911,5.68,4.7,10.712V403.615l-4.679-6.486-20.747.674,14.821,4.407Z" fill="#ffd971" fill-rule="evenodd"></path> <path id="Path_43" data-name="Path 43" d="M642.508,381.644l4.163,1.681,6.2,2.506.315-3.671-8.592-5.783-.5-.339-1.812-1.219-7.6,1.492-3.622.711,3.07,1.24,8.378,3.383Z" fill="#ffd971" fill-rule="evenodd"></path> <path id="Path_44" data-name="Path 44" d="M671.018,374.275l-22.7-15.039L608.863,368.3,580.3,376.7,552.556,390.78l-4.681,17.637.094,19.834,17.47,21.088h94.767l15.062-25.661v-8.923l25.743-8.429-11.5-24.619-19.531-.358,1.042-7.074Zm-59.643,3.632,35.012-8.048,13.9,9.206-.663,4.5-.575,3.909,6.446,3.716,10.159.187h.01l1.178.022,6.3.115,4.144,8.869-4.224,1.383-4.224,1.383.589-4.457-7.335-.1-6.74,11.752,0,10.634-10.821,18.436H570.1l-12.231-14.763-.071-14.966,3.2-12.071,22.97-11.66,27.4-8.05Z" fill="#2e2e2d" fill-rule="evenodd"></path> <path id="Path_45" data-name="Path 45" d="M662.636,403.4l2.711,16.813V403.331l-3.893-6.553-3.028-5.1-2.555-.78-2.464,1.086,9.23,11.417Z" fill="#da6500" fill-rule="evenodd"></path> <path id="Path_46" data-name="Path 46" d="M563.783,416.4l.348,6.373,5.461-9.76L574,407.341l31.507-7.772-33.647,2.18-3.808.247-1.677,3.615-2.85,6.145.254,4.644Z" fill="#f17b00" fill-rule="evenodd"></path> </g> </svg> 