<?xml version="1.0" encoding="UTF-8"?> <svg xmlns="http://www.w3.org/2000/svg" xmlns:xlink="http://www.w3.org/1999/xlink" width="110" height="110" viewBox="0 0 110 110"> <defs> <linearGradient id="linear-gradient" x1="0.209" y1="0.082" x2="0.852" y2="0.95" gradientUnits="objectBoundingBox"> <stop offset="0" stop-color="#f8b814"></stop> <stop offset="1" stop-color="#f88f14"></stop> </linearGradient> </defs> <g id="x12" transform="translate(-471 -13669)"> <circle id="Ellipse_21" data-name="Ellipse 21" cx="55" cy="55" r="55" transform="translate(471 13669)" fill="url(#linear-gradient)"></circle> <text id="х12" transform="translate(525 13757)" fill="#fff" font-size="22" font-family="MuseoSansCyrl-900, Museo Sans Cyrl" font-weight="900"> <tspan x="-18.711" y="0">х12</tspan> </text> <g id="knife-fork-and-plate" transform="translate(498 13658.364)"> <g id="Group_89" data-name="Group 89" transform="translate(9.062 33.711)"> <g id="Group_88" data-name="Group 88" transform="translate(0 0)"> <path id="Path_80" data-name="Path 80" d="M53.078,34.254A18.864,18.864,0,1,0,71.943,53.119,18.886,18.886,0,0,0,53.078,34.254Zm0,35.941A17.077,17.077,0,1,1,70.155,53.119,17.1,17.1,0,0,1,53.078,70.195Z" transform="translate(-34.213 -34.254)" fill="#fff"></path> </g> </g> <g id="Group_91" data-name="Group 91" transform="translate(14.197 38.846)"> <g id="Group_90" data-name="Group 90" transform="translate(0 0)"> <path id="Path_81" data-name="Path 81" d="M67.329,53.638a13.731,13.731,0,1,0,13.73,13.73A13.745,13.745,0,0,0,67.329,53.638Zm0,25.673A11.943,11.943,0,1,1,79.272,67.368,11.956,11.956,0,0,1,67.329,79.311Z" transform="translate(-53.6 -53.638)" fill="#fff"></path> </g> </g> <g id="Group_93" data-name="Group 93" transform="translate(47.657 33.516)"> <g id="Group_92" data-name="Group 92"> <path id="Path_82" data-name="Path 82" d="M187.016,52.983c0-.447-.016-4.9-.147-9.294-.081-2.718-.191-4.887-.325-6.448a21.209,21.209,0,0,0-.278-2.206c-.091-.455-.3-1.519-1.225-1.519a.977.977,0,0,0-.2.021c-.571.118-.96.565-1.754,2.9-.493,1.45-1.036,3.349-1.527,5.348-.584,2.378-1.907,8.248-1.584,11.4.212,2.069,1.147,2.5,1.895,2.5h.043c.353-.009.633-.014.857-.014.258,0,.419.006.605.012l.077,0c-.063,1.468-.31,3.5-.551,5.48a49.719,49.719,0,0,0-.589,7.617,2.75,2.75,0,0,0,2.747,2.851,3.259,3.259,0,0,0,2.261-.943,2.754,2.754,0,0,0,.821-1.963C188.132,66.571,187.092,53.913,187.016,52.983Zm-.962,16.448a1.453,1.453,0,0,1-.994.417c-.584,0-.908-.4-.963-1.188a49.3,49.3,0,0,1,.58-7.275,55.578,55.578,0,0,0,.577-6.594.894.894,0,0,0-.894-.875,9.684,9.684,0,0,1-2.4-.018c-.281-.461-.6-2.831.8-9.362a72.986,72.986,0,0,1,1.982-7.416c.3,3.346.477,9.878.486,15.9,0,.024,0,.048,0,.072.011.135,1.113,13.519,1.124,15.644A.953.953,0,0,1,186.054,69.431Z" transform="translate(-179.926 -33.516)" fill="#fff"></path> </g> </g> <g id="Group_95" data-name="Group 95" transform="translate(0 33.538)"> <g id="Group_94" data-name="Group 94" transform="translate(0 0)"> <path id="Path_83" data-name="Path 83" d="M9.727,43.3c0-.565-.018-1.38-.041-2.412-.035-1.577-.078-4.134-.078-6.186a.894.894,0,1,0-1.788,0c0,2.072.044,4.64.079,6.226.006.277.012.543.017.8L7,41.731V35a.894.894,0,0,0-1.788,0v6.761l-.835.012V35a.894.894,0,0,0-1.788,0v6.8l-.8.012V34.492a.894.894,0,1,0-1.788,0v8.695c0,2.169,1.59,3.652,4.127,3.943v5.121c-.258,0-.4.009-.415.009a.894.894,0,0,0-.858.761A140.063,140.063,0,0,0,1.6,68.318a2.983,2.983,0,0,0,2.971,3.238A3.281,3.281,0,0,0,7.9,68.578C8,66.467,7.442,57.521,7.2,54.311c-.043-.584-.075-1.02-.091-1.243a.894.894,0,0,0-.892-.834H5.915V47.116A4.3,4.3,0,0,0,9.727,43.3ZM6.118,68.5a1.5,1.5,0,0,1-1.546,1.269c-.754,0-1.164-.514-1.183-1.486A133.565,133.565,0,0,1,4.514,54.032c.239,0,.533-.006.876-.008l.031.419C5.636,57.348,6.208,66.493,6.118,68.5ZM5.073,45.4c-.716,0-2.934-.139-3.247-1.8l6.091-.09A2.819,2.819,0,0,1,5.073,45.4Z" transform="translate(0 -33.598)" fill="#fff"></path> </g> </g> </g> </g> </svg> 