<?xml version="1.0" encoding="UTF-8"?> <svg xmlns="http://www.w3.org/2000/svg" xmlns:xlink="http://www.w3.org/1999/xlink" width="110" height="110" viewBox="0 0 110 110"> <defs> <linearGradient id="linear-gradient" y1="-0.17" x2="0.852" y2="0.95" gradientUnits="objectBoundingBox"> <stop offset="0" stop-color="#f82553"></stop> <stop offset="1" stop-color="#f88f14"></stop> </linearGradient> </defs> <g id="x4" transform="translate(-471 -13669)"> <circle id="Ellipse_21" data-name="Ellipse 21" cx="55" cy="55" r="55" transform="translate(471 13669)" fill="url(#linear-gradient)"></circle> <text id="х16" transform="translate(525 13757)" fill="#fff" font-size="22" font-family="MuseoSansCyrl-900, Museo Sans Cyrl" font-weight="900"> <tspan x="-18.887" y="0">х16</tspan> </text> <path id="giftbox" d="M44.306,9.492H40.642a3.788,3.788,0,0,0,.467-3.53L40,2.977A3.8,3.8,0,0,0,34.8.867L26.014,5.04a2.638,2.638,0,0,0-1.539-.494H20.525a2.639,2.639,0,0,0-1.539.494L10.2.867A3.8,3.8,0,0,0,5,2.977L3.891,5.962a3.814,3.814,0,0,0,.18,3.059,3.746,3.746,0,0,0,.287.471H.695A.694.694,0,0,0,0,10.186v5a.695.695,0,0,0,1.389,0V10.881H6.213c.077.027.156.052.235.074l5.831,1.605A46.4,46.4,0,0,0,8.862,18.8H1.389v-.834a.695.695,0,0,0-1.389,0v1.528a.7.7,0,0,0,.695.695H3.171V44.775a.694.694,0,0,0,.695.695H41.134a.694.694,0,0,0,.695-.695V40.742a.695.695,0,1,0-1.389,0v3.338H26.667V20.614a37.191,37.191,0,0,1,3.912,11.964.694.694,0,0,0,.515.572.685.685,0,0,0,.172.022.694.694,0,0,0,.554-.276,38.725,38.725,0,0,0,2.765-4.223,39.583,39.583,0,0,1,4.059,3.175.695.695,0,0,0,1.149-.619A46.582,46.582,0,0,0,36.74,20.187h3.7V37.964a.695.695,0,0,0,1.389,0V20.187h2.477A.694.694,0,0,0,45,19.492V10.186A.694.694,0,0,0,44.306,9.492ZM35.4,2.121a2.415,2.415,0,0,1,3.3,1.34l1.11,2.984a2.415,2.415,0,0,1-1.623,3.17L27.129,12.659V9.321c2.485-1.522,8.68-4.66,10.222-2.484a.694.694,0,1,0,1.133-.8c-1.19-1.68-3.7-1.762-7.454-.242a33.081,33.081,0,0,0-3.9,1.919V7.2a2.641,2.641,0,0,0-.216-1.048ZM20.525,5.935h3.951A1.265,1.265,0,0,1,25.739,7.2V12.94A1.265,1.265,0,0,1,24.476,14.2H20.525a1.265,1.265,0,0,1-1.264-1.264V7.2A1.265,1.265,0,0,1,20.525,5.935ZM19.357,18.8a37.042,37.042,0,0,1,2.165-3.2h1.954a36.887,36.887,0,0,1,2.165,3.2ZM5.308,8.388a2.39,2.39,0,0,1-.115-1.943L6.3,3.461a2.414,2.414,0,0,1,3.3-1.34l8.485,4.03A2.636,2.636,0,0,0,17.872,7.2v.552A33.2,33.2,0,0,0,13.9,5.793c-3.756-1.519-6.264-1.438-7.454.242a.694.694,0,1,0,1.133.8c1.556-2.2,7.853,1.021,10.29,2.526v3.3L6.817,9.616A2.389,2.389,0,0,1,5.308,8.388Zm12.876,5.8a2.664,2.664,0,0,0,1.677,1.322A38.64,38.64,0,0,0,13.327,30.72a38.005,38.005,0,0,1-2.059-3.375.694.694,0,0,0-.99-.251A40.237,40.237,0,0,0,6.9,29.564a45.375,45.375,0,0,1,6.791-16.617Zm-13.623,6h3.7A46.594,46.594,0,0,0,5.206,31.228a.695.695,0,0,0,1.149.619,39.55,39.55,0,0,1,4.059-3.175,38.708,38.708,0,0,0,2.765,4.223.694.694,0,0,0,.554.277.685.685,0,0,0,.172-.022.694.694,0,0,0,.515-.572,37.21,37.21,0,0,1,3.912-11.964V44.081H4.56ZM19.722,44.081V20.187h5.556V44.081Zm15-16.986a.695.695,0,0,0-.99.251,37.956,37.956,0,0,1-2.059,3.375A38.63,38.63,0,0,0,25.14,15.508a2.663,2.663,0,0,0,1.677-1.323l4.5-1.238a45.4,45.4,0,0,1,6.791,16.617A40.3,40.3,0,0,0,34.722,27.094Zm8.889-8.3H36.139a46.431,46.431,0,0,0-3.417-6.238l5.83-1.605c.079-.022.158-.047.235-.074h4.824Zm0,0" transform="translate(503 13685.5)" fill="#fff"></path> </g> </svg> 